<?xml version="1.0" encoding="utf-8"?>
<svg viewBox="137 220 132 132" xmlns="http://www.w3.org/2000/svg">
  <path d="M 202.328 352.182 C 166.249 352.182 137 322.934 137 286.854 C 137 250.775 166.249 221.526 202.328 221.526 C 238.408 221.526 267.656 250.775 267.656 286.854 C 267.656 322.934 238.408 352.182 202.328 352.182 Z M 183.438 314.284 C 186.636 312.671 189.11 310.334 190.859 307.273 C 192.608 304.212 193.483 300.604 193.483 296.449 L 193.483 285.625 C 193.483 285.352 193.387 285.119 193.196 284.928 C 193.005 284.737 192.772 284.641 192.499 284.641 L 172.491 284.641 C 172.218 284.641 171.985 284.737 171.794 284.928 C 171.603 285.119 171.507 285.352 171.507 285.625 L 171.507 293.169 C 171.507 293.442 171.603 293.675 171.794 293.866 C 171.985 294.057 172.218 294.153 172.491 294.153 L 181.675 294.153 C 181.948 294.153 182.085 294.29 182.085 294.563 L 182.085 298.253 C 182.085 300.932 181.238 303.023 179.543 304.526 C 177.848 306.029 175.58 306.781 172.737 306.781 C 169.785 306.781 167.352 305.865 165.439 304.034 C 163.526 302.203 162.569 299.811 162.569 296.859 L 162.569 277.835 C 162.569 274.883 163.457 272.491 165.234 270.66 C 167.011 268.829 169.375 267.913 172.327 267.913 C 175.224 267.913 177.548 268.774 179.297 270.496 C 181.046 272.218 181.921 274.336 181.921 276.851 L 181.921 277.097 C 181.921 277.37 182.017 277.603 182.208 277.794 C 182.399 277.985 182.632 278.081 182.905 278.081 L 192.499 278.081 C 192.772 278.081 193.005 277.985 193.196 277.794 C 193.387 277.603 193.483 277.37 193.483 277.097 L 193.483 276.523 C 193.483 273.079 192.595 269.949 190.818 267.134 C 189.041 264.319 186.554 262.091 183.356 260.451 C 180.158 258.811 176.482 257.991 172.327 257.991 C 168.118 257.991 164.4 258.825 161.175 260.492 C 157.95 262.159 155.449 264.524 153.672 267.585 C 151.895 270.646 151.007 274.172 151.007 278.163 L 151.007 296.531 C 151.007 300.522 151.895 304.034 153.672 307.068 C 155.449 310.102 157.95 312.466 161.175 314.161 C 164.4 315.856 168.118 316.703 172.327 316.703 C 176.536 316.703 180.24 315.897 183.438 314.284 Z M 226.857 278.409 C 226.693 278.737 226.529 278.737 226.365 278.409 L 214.065 259.303 C 213.792 258.866 213.409 258.647 212.917 258.647 L 203.323 258.647 C 203.05 258.647 202.817 258.743 202.626 258.934 C 202.435 259.125 202.339 259.358 202.339 259.631 L 202.339 315.063 C 202.339 315.336 202.435 315.569 202.626 315.76 C 202.817 315.951 203.05 316.047 203.323 316.047 L 212.917 316.047 C 213.19 316.047 213.423 315.951 213.614 315.76 C 213.805 315.569 213.901 315.336 213.901 315.063 L 213.901 278.983 C 213.901 278.764 213.956 278.641 214.065 278.614 C 214.174 278.587 214.284 278.655 214.393 278.819 L 223.085 292.431 C 223.358 292.868 223.741 293.087 224.233 293.087 L 229.071 293.087 C 229.563 293.087 229.946 292.868 230.219 292.431 L 238.911 278.819 C 239.02 278.655 239.13 278.573 239.239 278.573 C 239.348 278.573 239.403 278.682 239.403 278.901 L 239.403 315.063 C 239.403 315.336 239.499 315.569 239.69 315.76 C 239.881 315.951 240.114 316.047 240.387 316.047 L 249.981 316.047 C 250.254 316.047 250.487 315.951 250.678 315.76 C 250.869 315.569 250.965 315.336 250.965 315.063 L 250.965 259.631 C 250.965 259.358 250.869 259.125 250.678 258.934 C 250.487 258.743 250.254 258.647 249.981 258.647 L 240.387 258.647 C 239.895 258.647 239.512 258.866 239.239 259.303 Z" style="stroke: rgb(0, 0, 0); stroke-opacity: 0.5; fill: rgb(255, 255, 255); stroke-width: 0px;"/>
</svg>